<?xml version="1.0" encoding="UTF-8"?>
<svg width="150px" height="150px" viewBox="0 0 150 150" version="1.1" xmlns="http://www.w3.org/2000/svg" xmlns:xlink="http://www.w3.org/1999/xlink">
    <title>14_F7F7F7_2C2C2C</title>
    <defs>
        <rect id="path-1" x="0" y="0" width="62" height="47" rx="2"></rect>
        <rect id="path-3" x="0" y="0" width="66" height="51" rx="2"></rect>
        <filter x="-12.1%" y="-15.7%" width="130.3%" height="139.2%" filterUnits="objectBoundingBox" id="filter-4">
            <feOffset dx="2" dy="2" in="SourceAlpha" result="shadowOffsetOuter1"></feOffset>
            <feGaussianBlur stdDeviation="3" in="shadowOffsetOuter1" result="shadowBlurOuter1"></feGaussianBlur>
            <feColorMatrix values="0 0 0 0 0   0 0 0 0 0   0 0 0 0 0  0 0 0 0.246232893 0" type="matrix" in="shadowBlurOuter1"></feColorMatrix>
        </filter>
    </defs>
    <g id="14_F7F7F7_2C2C2C" stroke="none" stroke-width="1" fill="none" fill-rule="evenodd">
        <g id="Group-6" transform="translate(26.000000, 39.000000)">
            <g id="Clipped">
                <mask id="mask-2" fill="white">
                    <use xlink:href="#path-1"></use>
                </mask>
                <g id="Rectangle"></g>
                <g id="Group" mask="url(#mask-2)">
                    <g transform="translate(-8.326500, -1.282100)">
                        <polygon id="Path" fill="#0059B7" fill-rule="nonzero" points="71 0 0 0 0 48.9999 71 48.9999"></polygon>
                        <polyline id="Fill-575" fill="#FFFFFF" fill-rule="evenodd" points="66 16.2821 66.6669381 18.0154473 68.4063518 17.4698219 67.5 19.0872785 69 20.1409432 67.2031759 20.4222128 67.3357085 22.2821 66 21.0167001 64.6642915 22.2821 64.7968241 20.4222128 63 20.1409432 64.4993893 19.0872785 63.5936482 17.4698219 65.3324511 18.0154473 66 16.2821"></polyline>
                        <polyline id="Fill-576" fill="#FFFFFF" fill-rule="evenodd" points="57 5.2821 57.6681168 7.01733162 59.4058421 6.46973281 58.4996892 8.08702988 60 9.14142852 58.2019888 9.42319647 58.3362337 11.2821 57 10.0166941 55.6643878 11.2821 55.7986327 9.42319647 54 9.14142852 55.4996892 8.08702988 54.5935364 6.46973281 56.3325047 7.01733162 57 5.2821"></polyline>
                        <polyline id="Fill-577" fill="#FFFFFF" fill-rule="evenodd" points="59.9993998 25 60.4447779 26.1564856 61.6038415 25.7915064 61 26.8710571 62 27.5714725 60.8013205 27.7591937 60.8907563 29 59.9993998 28.1555624 59.1098439 29 59.1980792 27.7591937 58 27.5714725 58.9993998 26.8710571 58.3961585 25.7915064 59.5552221 26.1564856 59.9993998 25"></polyline>
                        <polyline id="Fill-578" fill="#FFFFFF" fill-rule="evenodd" points="56.0006072 38 56.667881 39.7334164 58.4068002 39.1871691 57.5009107 40.8041109 59 41.8573653 57.2034001 42.1395204 57.3351548 44 56.0006072 42.7343507 54.6648452 44 54.797207 42.1395204 53 41.8573653 54.4990893 40.8041109 53.5944141 39.1871691 55.3327262 39.7334164 56.0006072 38"></polyline>
                        <polyline id="Fill-578-Copy" fill="#FFFFFF" fill-rule="evenodd" points="22.5009107 34 23.5018215 36.6001246 26.1102004 35.7807537 24.7513661 38.2061663 27 39.786048 24.3051002 40.2092806 24.5027322 43 22.5009107 41.101526 20.4972678 43 20.6958106 40.2092806 18 39.786048 20.2486339 38.2061663 18.8916211 35.7807537 21.4990893 36.6001246 22.5009107 34"></polyline>
                        <polyline id="Fill-579" fill="#FFFFFF" fill-rule="evenodd" points="45 18 45.66808 19.7338994 47.405209 19.1878236 46.4996972 20.8049286 48 21.8591841 46.2029073 22.1412301 46.3355542 24 45 22.7345206 43.6650515 24 43.7976984 22.1412301 42 21.8591841 43.5003028 20.8049286 42.594791 19.1878236 44.33192 19.7338994 45 18"></polyline>
                        <polygon id="Path" fill="#0059B7" fill-rule="nonzero" points="38.501 0.453 0.453 0.453 0.453 25.0701 38.501 25.0701"></polygon>
                        <polygon id="Path" fill="#FFFFFF" fill-rule="nonzero" points="38.501 9.0512 23.2705 9.0512 23.2705 0.453 15.6553 0.453 15.6553 9.0512 0.453 9.0512 0.453 16.4445 15.6553 16.4445 15.6553 25.0701 23.2705 25.0701 23.2705 16.4445 38.501 16.4445"></polygon>
                        <polygon id="Path" fill="#FFFFFF" fill-rule="nonzero" points="38.501 22.2497 4.8247 0.453 0.453 0.453 0.453 3.3008 34.101 25.0701 38.501 25.0701"></polygon>
                        <polygon id="Path" fill="#FFFFFF" fill-rule="nonzero" points="0.453 22.2497 34.1292 0.453 38.501 0.453 38.501 3.3008 4.8529 25.0701 0.453 25.0701"></polygon>
                        <polygon id="Path" fill="#F44247" fill-rule="nonzero" points="38.501 10.612 21.691 10.612 21.691 0.453 17.2629 0.453 17.2629 10.612 0.453 10.612 0.453 14.9111 17.2629 14.9111 17.2629 25.0701 21.691 25.0701 21.691 14.9111 38.501 14.9111"></polygon>
                        <polygon id="Path" fill="#F44247" fill-rule="nonzero" points="38.501 24.9872 38.501 23.043 28.2628 16.4438 25.2449 16.4438"></polygon>
                        <polygon id="Path" fill="#F44247" fill-rule="nonzero" points="38.501 0.453 35.4831 0.453 23.2706 8.3392 23.2706 9.0512 25.1603 9.0512"></polygon>
                        <polygon id="Path" fill="#F44247" fill-rule="nonzero" points="13.6809 16.4438 0.453 24.9872 0.453 25.0694 3.3581 25.0694 15.6553 17.1284 15.6553 16.4438"></polygon>
                        <polygon id="Path" fill="#F44247" fill-rule="nonzero" points="0.453 0.453 0.453 2.3972 10.7477 9.0512 13.7656 9.0512"></polygon>
                    </g>
                </g>
            </g>
            <g id="Group" transform="translate(37.000000, 25.000000)" fill-rule="nonzero">
                <g id="Rectangle-Copy">
                    <use fill="black" fill-opacity="1" filter="url(#filter-4)" xlink:href="#path-3"></use>
                    <use fill="#FFFFFF" xlink:href="#path-3"></use>
                </g>
                <rect id="Rectangle" stroke="#BABABA" stroke-width="0.5" fill="#FFFFFF" x="2" y="2" width="62" height="47" rx="2"></rect>
                <path d="M47,25.0000507 C47,32.7260057 40.7259179,39 33.0000506,39 C25.2740821,39 19,32.7260057 19,25.0000507 C19,17.2740957 25.2740821,11 33.0000506,11 C40.751904,11 47,17.2740957 47,25.0000507 Z" id="Path" fill="#F44247"></path>
            </g>
        </g>
    </g>
</svg>