<?xml version="1.0" encoding="UTF-8"?>
<svg version="1.1" xmlns="http://www.w3.org/2000/svg" width="70" height="70">
<path d="M0 0 C11.88 0 23.76 0 36 0 C36 3.96 36 7.92 36 12 C43.26 12 50.52 12 58 12 C58 21.24 58 30.48 58 40 C46.12 40 34.24 40 22 40 C22 36.04 22 32.08 22 28 C14.74 28 7.48 28 0 28 C0 18.76 0 9.52 0 0 Z " fill="#C4C1C1" transform="translate(6,16)"/>
<path d="M0 0 C11.22 0 22.44 0 34 0 C34 8.58 34 17.16 34 26 C22.78 26 11.56 26 0 26 C0 17.42 0 8.84 0 0 Z " fill="#FFFEFE" transform="translate(29,29)"/>
<path d="M0 0 C3.3 0 6.6 0 10 0 C10 9.24 10 18.48 10 28 C6.7 28 3.4 28 0 28 C0 18.76 0 9.52 0 0 Z " fill="#E45758" transform="translate(6,16)"/>
<path d="M0 0 C3.3 0 6.6 0 10 0 C10 3.96 10 7.92 10 12 C17.26 12 24.52 12 32 12 C32 21.24 32 30.48 32 40 C20.12 40 8.24 40 -4 40 C-4 30.76 -4 21.52 -4 12 C-3.01 11.67 -2.02 11.34 -1 11 C-0.67 7.37 -0.34 3.74 0 0 Z M-3 13 C-3 21.58 -3 30.16 -3 39 C8.22 39 19.44 39 31 39 C31 30.42 31 21.84 31 13 C19.78 13 8.56 13 -3 13 Z " fill="#CBCBCB" transform="translate(32,16)"/>
<path d="M0 0 C5.28 0 10.56 0 16 0 C16 3.63 16 7.26 16 11 C14.02 11.66 12.04 12.32 10 13 C9.67 11.35 9.34 9.7 9 8 C8.34 8 7.68 8 7 8 C6.67 9.65 6.34 11.3 6 13 C4.68 12.67 3.36 12.34 2 12 C1.67 12.99 1.34 13.98 1 15 C0.67 15 0.34 15 0 15 C0 10.05 0 5.1 0 0 Z " fill="#DAD7D6" transform="translate(16,16)"/>
<path d="M0 0 C3.375 0.875 3.375 0.875 5.375 2.875 C5.84883353 6.50772373 5.8341452 8.22879564 3.6875 11.25 C1.375 12.875 1.375 12.875 -1.125 13.375 C-4.4626027 12.70747946 -5.63100369 11.60751347 -7.625 8.875 C-8.28974877 5.55125617 -7.92761443 4.33497394 -6.0625 1.5 C-3.625 -0.125 -3.625 -0.125 0 0 Z " fill="#FE3F38" transform="translate(46.625,36.125)"/>
<path d="M0 0 C3.3 0 6.6 0 10 0 C10 3.96 10 7.92 10 12 C6.7 12 3.4 12 0 12 C0 8.04 0 4.08 0 0 Z " fill="#B04344" transform="translate(32,16)"/>
<path d="M0 0 C0.66 0 1.32 0 2 0 C4.17633205 2.26003713 4.95661225 3.53358172 5.25 6.6875 C5 9 5 9 4 10 C-1.33701657 10.4640884 -1.33701657 10.4640884 -3.875 8.6875 C-5 7 -5 7 -5 4 C-4.01 4 -3.02 4 -2 4 C-1.34 2.68 -0.68 1.36 0 0 Z " fill="#D1342F" transform="translate(23,24)"/>
</svg>
