<?xml version="1.0" encoding="UTF-8"?>
<svg width="150px" height="150px" viewBox="0 0 150 150" version="1.1" xmlns="http://www.w3.org/2000/svg" xmlns:xlink="http://www.w3.org/1999/xlink">
    <title>8_F7F7F7_2C2C2C</title>
    <defs>
        <rect id="path-1" x="38" y="25" width="66" height="51" rx="2"></rect>
        <filter x="-12.1%" y="-15.7%" width="130.3%" height="139.2%" filterUnits="objectBoundingBox" id="filter-2">
            <feOffset dx="2" dy="2" in="SourceAlpha" result="shadowOffsetOuter1"></feOffset>
            <feGaussianBlur stdDeviation="3" in="shadowOffsetOuter1" result="shadowBlurOuter1"></feGaussianBlur>
            <feColorMatrix values="0 0 0 0 0   0 0 0 0 0   0 0 0 0 0  0 0 0 0.15 0" type="matrix" in="shadowBlurOuter1"></feColorMatrix>
        </filter>
        <rect id="path-3" x="0" y="0" width="62" height="47" rx="2"></rect>
    </defs>
    <g id="8_F7F7F7_2C2C2C" stroke="none" stroke-width="1" fill="none" fill-rule="evenodd">
        <g id="Group-7" transform="translate(25.000000, 39.000000)">
            <g id="Group-4" fill-rule="nonzero">
                <g id="Clipped">
                    <path d="M60,0 L2,0 C0.8954305,2.02906125e-16 -1.3527075e-16,0.8954305 0,2 L0,45 C1.3527075e-16,46.1045695 0.8954305,47 2,47 L60,47 C61.1045695,47 62,46.1045695 62,45 L62,2 C62,0.8954305 61.1045695,-2.02906125e-16 60,0 Z" id="Path" fill="#0059B7"></path>
                    <g id="Group" transform="translate(14.000000, 6.000000)" fill="#FFDE59">
                        <polygon id="Path" points="16.8115632 0 17.655174 2.70016384 20.3846714 2.70016384 18.1763119 4.36901511 19.0199227 7.06917896 16.8115632 5.40032769 14.6032037 7.06917896 15.4467252 4.36901511 13.2384551 2.70016384 15.9680417 2.70016384"></polygon>
                        <polygon id="Path" points="4.96009942 5.15920262 7.42268556 6.46413617 9.37681841 4.43173129 8.944383 7.27070817 11.4069691 8.57573275 8.67729316 9.02548698 8.24494707 11.8646459 6.99025014 9.30338613 4.26075282 9.75314036 6.21488567 7.72064446"></polygon>
                        <polygon id="Path" points="0 17.6772256 2.72958665 16.7546878 2.72958665 13.7695248 4.41645101 16.1846896 7.14621631 15.2621518 5.45908397 17.6772256 7.14621631 20.0922993 4.41645101 19.1698525 2.72958665 21.5849263 2.72958665 18.5997633"></polygon>
                        <polygon id="Path" points="4.96009942 29.9115238 6.21479635 27.3500819 4.26075282 25.317495 6.9904288 25.7674313 8.24494707 23.2059894 8.67738249 26.0451484 11.4069691 26.4949026 8.94465098 27.7999272 9.37690774 30.6389951 7.42277489 28.6064082"></polygon>
                        <polygon id="Path" points="16.8115632 35 15.9679524 32.2998362 13.2384551 32.2998362 15.4468145 30.6310759 14.6032037 27.9310941 16.8115632 29.5997633 19.0199227 27.9310941 18.1763119 30.6310759 20.3846714 32.2998362 17.6550847 32.2998362"></polygon>
                        <polygon id="Path" points="28.7579823 29.9116148 26.2953069 28.6065902 24.3409954 30.6392682 24.7735201 27.7999272 22.3111126 26.4949026 25.0406993 26.0452394 25.4730454 23.2059894 26.7277423 25.7674313 29.4573289 25.317495 27.5031068 27.350355"></polygon>
                        <polygon id="Path" points="34 17.6773166 31.270324 18.5999454 31.270324 21.5851993 29.583281 19.1699436 26.8537837 20.0924813 28.5408267 17.6773166 26.8537837 15.2622429 29.5834597 16.1847806 31.270324 13.7695248 31.270324 16.7548698"></polygon>
                        <polygon id="Path" points="28.757893 5.1591116 27.5031068 7.72055343 29.4573289 9.75314036 26.7275636 9.30320408 25.4730454 11.8645549 25.0406993 9.02539596 22.3111126 8.5755507 24.7734308 7.27061715 24.3409954 4.43173129 26.2953962 6.46413617"></polygon>
                    </g>
                </g>
            </g>
            <g id="Rectangle" fill-rule="nonzero">
                <use fill="black" fill-opacity="1" filter="url(#filter-2)" xlink:href="#path-1"></use>
                <use fill="#FFFFFF" xlink:href="#path-1"></use>
            </g>
            <g id="Clipped" transform="translate(40.000000, 27.000000)">
                <mask id="mask-4" fill="white">
                    <use xlink:href="#path-3"></use>
                </mask>
                <g id="Rectangle"></g>
                <g id="Group" mask="url(#mask-4)" fill-rule="nonzero">
                    <g transform="translate(-7.216400, -5.000000)" id="Path">
                        <polygon fill="#0059B7" points="69.2164 5 7.2164 5 7.2164 52 69.2164 52"></polygon>
                        <polygon fill="#FFFFFF" points="69.2164 23.6147872 44.1830995 23.3172131 44.1830995 5.0099 32.795795 5.0099 32.795795 23.3172131 6 23.3172131 6 34.7024258 32.795795 34.7024258 32.795795 52.0099 44.1830995 52.0099 44.1830995 34.7024258 69.2164 35"></polygon>
                        <polygon fill="#FFFFFF" points="71 47.6374338 6.52820568 0.0099 0 0.0099 0 4.4245694 64.4083973 52.0099 71 52.0099"></polygon>
                        <polygon fill="#FFFFFF" points="5.2164 47.6275338 69.6670888 2.66453526e-15 76.2164 3.55314736e-15 76.2164 4.4146694 10.4328 52.9901 4.2164 53"></polygon>
                        <polygon fill="#F44247" points="70 25.6830113 41.8168666 25.6830113 41.8168666 5.0099 35.1619473 5.0099 35.1619473 25.6830113 7 25.6830113 7 32.3367081 35.1619473 32.3367081 35.1619473 52.0099 41.8168666 52.0099 41.8168666 32.3367081 70 32.3367081"></polygon>
                        <polygon fill="#F44247" points="71 52.0099 71 49.0563387 51.5579983 34.0099 47 34.0099"></polygon>
                        <polygon fill="#F44247" points="77 0.0099 72.4426309 0.0099 44 21.8956255 44 23.0099 46.8323995 23.0099"></polygon>
                        <polygon fill="#F44247" points="30.0157536 34.0099 3 53.9066723 3 54.0099 7.39106943 54.0099 33 35.0210907 33 34.0099"></polygon>
                        <polygon fill="#F44247" points="1.98005337 0 0.2164 3 26.8185742 23 31.2164 23"></polygon>
                    </g>
                </g>
            </g>
        </g>
    </g>
</svg>