<?xml version="1.0" encoding="UTF-8"?>
<svg width="150px" height="150px" viewBox="0 0 150 150" version="1.1" xmlns="http://www.w3.org/2000/svg" xmlns:xlink="http://www.w3.org/1999/xlink">
    <title>2_F7F7F7_2C2C2C</title>
    <defs>
        <rect id="path-1" x="0" y="0" width="62" height="47" rx="2"></rect>
        <rect id="path-3" x="0" y="0" width="66" height="51" rx="2"></rect>
        <filter x="-12.1%" y="-15.7%" width="130.3%" height="139.2%" filterUnits="objectBoundingBox" id="filter-4">
            <feOffset dx="2" dy="2" in="SourceAlpha" result="shadowOffsetOuter1"></feOffset>
            <feGaussianBlur stdDeviation="3" in="shadowOffsetOuter1" result="shadowBlurOuter1"></feGaussianBlur>
            <feColorMatrix values="0 0 0 0 0   0 0 0 0 0   0 0 0 0 0  0 0 0 0.15 0" type="matrix" in="shadowBlurOuter1"></feColorMatrix>
        </filter>
        <rect id="path-5" x="0" y="0" width="62" height="47" rx="2"></rect>
    </defs>
    <g id="2_F7F7F7_2C2C2C" stroke="none" stroke-width="1" fill="none" fill-rule="evenodd">
        <rect id="Rectangle" fill="#FFFFFF" fill-rule="nonzero" x="26" y="37" width="66" height="51" rx="2"></rect>
        <g id="Group-4" transform="translate(25.000000, 39.000000)">
            <g id="Clipped">
                <mask id="mask-2" fill="white">
                    <use xlink:href="#path-1"></use>
                </mask>
                <g id="Rectangle"></g>
                <g id="Group" mask="url(#mask-2)" fill-rule="nonzero">
                    <g transform="translate(-7.216400, -5.000000)" id="Path">
                        <polygon fill="#0059B7" points="69.2164 5 7.2164 5 7.2164 52 69.2164 52"></polygon>
                        <polygon fill="#FFFFFF" points="69.2164 23.6147872 44.1830995 23.3172131 44.1830995 5.0099 32.795795 5.0099 32.795795 23.3172131 6 23.3172131 6 34.7024258 32.795795 34.7024258 32.795795 52.0099 44.1830995 52.0099 44.1830995 34.7024258 69.2164 35"></polygon>
                        <polygon fill="#FFFFFF" points="71 47.6374338 6.52820568 0.0099 0 0.0099 0 4.4245694 64.4083973 52.0099 71 52.0099"></polygon>
                        <polygon fill="#FFFFFF" points="5.2164 47.6275338 69.6670888 6.21724894e-15 76.2164 7.10586104e-15 76.2164 4.4146694 10.4328 52.9901 4.2164 53"></polygon>
                        <polygon fill="#F44247" points="70 25.6830113 41.8168666 25.6830113 41.8168666 5.0099 35.1619473 5.0099 35.1619473 25.6830113 7 25.6830113 7 32.3367081 35.1619473 32.3367081 35.1619473 52.0099 41.8168666 52.0099 41.8168666 32.3367081 70 32.3367081"></polygon>
                        <polygon fill="#F44247" points="71 52.0099 71 49.0563387 51.5579983 34.0099 47 34.0099"></polygon>
                        <polygon fill="#F44247" points="77 0.0099 72.4426309 0.0099 44 21.8956255 44 23.0099 46.8323995 23.0099"></polygon>
                        <polygon fill="#F44247" points="30.0157536 34.0099 3 53.9066723 3 54.0099 7.39106943 54.0099 33 35.0210907 33 34.0099"></polygon>
                        <polygon fill="#F44247" points="1.98005337 0 0.2164 3 26.8185742 23 31.2164 23"></polygon>
                    </g>
                </g>
            </g>
            <g id="Group-6" transform="translate(38.000000, 25.000000)">
                <g id="Rectangle" fill-rule="nonzero">
                    <use fill="black" fill-opacity="1" filter="url(#filter-4)" xlink:href="#path-3"></use>
                    <use fill="#FFFFFF" xlink:href="#path-3"></use>
                </g>
                <g id="Group-21" transform="translate(2.000000, 2.000000)">
                    <mask id="mask-6" fill="white">
                        <use xlink:href="#path-5"></use>
                    </mask>
                    <use id="Rectangle" fill="#FFFFFF" xlink:href="#path-5"></use>
                    <g id="Group-19" mask="url(#mask-6)">
                        <g transform="translate(-3.000000, 0.000000)">
                            <polygon id="Fill-66" fill="#F44247" points="0 29 69 29 69 19 0 19"></polygon>
                            <polygon id="Fill-66-Copy" fill="#F44247" points="0 48 69 48 69 38 0 38"></polygon>
                            <path d="M69,8.59027678 C69,3.84913237 67.5613056,0 65.7877195,0 L3.2117447,0 C1.43815862,0 0,3.84913237 0,8.59027678 L0,10 L69,10 L69,8.59027678" id="Fill-67" fill="#F44247"></path>
                            <path d="M5.05074781,0 C3.33302661,0.00239244318 3,0.49114098 3,2.46729905 L3,29 L38,29 L38,0 L5.05074781,0 Z" id="Fill-68" fill="#007CE0"></path>
                            <g id="Group-20" stroke-width="1" fill="none" transform="translate(6.000000, 3.000000)">
                                <polyline id="Fill-74" fill="#FFFFFF" points="2.36425174 0 2.8999504 1.75113882 4.68823856 1.75113882 3.23870102 2.82801886 3.79365681 4.58794853 2.36425174 3.50931032 0.916464856 4.58794853 1.47142065 2.82801886 0 1.75113882 1.81192192 1.75113882 2.36425174 0"></polyline>
                                <polyline id="Fill-75" fill="#FFFFFF" points="12.0584717 0 12.6160535 1.75113882 14.3850845 1.75113882 12.9556794 2.82801886 13.5071339 4.58794853 12.0584717 3.50931032 10.6098095 4.58794853 11.1647653 2.82801886 9.71697838 1.75113882 11.5078925 1.75113882 12.0584717 0"></polyline>
                                <polyline id="Fill-76" fill="#FFFFFF" points="22.1816007 0 22.7356811 1.75113882 24.5239693 1.75113882 23.0744318 2.82801886 23.6293876 4.58794853 22.1816007 3.50931032 20.7303125 4.58794853 21.3071514 2.82801886 19.8383567 1.75113882 21.6266449 1.75113882 22.1816007 0"></polyline>
                                <polyline id="Fill-79" fill="#FFFFFF" points="2.36425174 8.72404699 2.8999504 10.4619995 4.68823856 10.4619995 3.23870102 11.5503077 3.79365681 13.2979302 2.36425174 12.2236874 0.916464856 13.2979302 1.47142065 11.5503077 0 10.4619995 1.81192192 10.4619995 2.36425174 8.72404699"></polyline>
                                <polyline id="Fill-80" fill="#FFFFFF" points="12.0584717 8.72404699 12.6160535 10.4619995 14.3850845 10.4619995 12.9556794 11.5503077 13.5071339 13.2979302 12.0584717 12.2236874 10.6098095 13.2979302 11.1647653 11.5503077 9.71697838 10.4619995 11.5078925 10.4619995 12.0584717 8.72404699"></polyline>
                                <polyline id="Fill-81" fill="#FFFFFF" points="22.1816007 8.72404699 22.7356811 10.4619995 24.5239693 10.4619995 23.0744318 11.5503077 23.6293876 13.2979302 22.1816007 12.2236874 20.7303125 13.2979302 21.3071514 11.5503077 19.8383567 10.4619995 21.6266449 10.4619995 22.1816007 8.72404699"></polyline>
                                <polyline id="Fill-84" fill="#FFFFFF" points="2.36425174 17.4340286 2.8999504 19.1842883 4.68823856 19.1842883 3.23870102 20.2725965 3.79365681 22 2.36425174 20.9108128 0.916464856 22 1.47142065 20.2725965 0 19.1842883 1.81192192 19.1842883 2.36425174 17.4340286"></polyline>
                                <polyline id="Fill-85" fill="#FFFFFF" points="12.0584717 17.4340286 12.6160535 19.1842883 14.3850845 19.1842883 12.9556794 20.2725965 13.5071339 22 12.0584717 20.9108128 10.6098095 22 11.1647653 20.2725965 9.71697838 19.1842883 11.5078925 19.1842883 12.0584717 17.4340286"></polyline>
                                <polyline id="Fill-86" fill="#FFFFFF" points="22.1816007 17.4340286 22.7356811 19.1842883 24.5239693 19.1842883 23.0744318 20.2725965 23.6293876 22 22.1816007 20.9108128 20.7303125 22 21.3071514 20.2725965 19.8383567 19.1842883 21.6266449 19.1842883 22.1816007 17.4340286"></polyline>
                                <polyline id="Fill-96" fill="#FFFFFF" points="7.39299157 3.92687605 7.94794736 5.68856389 9.7353602 5.68856389 8.30945642 6.75489491 8.86441222 8.50427555 7.39299157 7.42651642 5.98634494 8.50427555 6.54130073 6.75489491 5.09263852 5.68856389 6.86079421 5.68856389 7.39299157 3.92687605"></polyline>
                                <polyline id="Fill-97" fill="#FFFFFF" points="17.5581361 3.92687605 18.0929595 5.68856389 19.8584892 5.68856389 18.4290841 6.75489491 18.9840399 8.50427555 17.5581361 7.42651642 16.1085986 8.50427555 16.6416713 6.75489491 15.2157675 5.68856389 17.0031803 5.68856389 17.5581361 3.92687605"></polyline>
                                <polyline id="Fill-98" fill="#FFFFFF" points="27.6768885 3.92687605 28.2344703 5.68856389 30 5.68856389 28.5513378 6.75489491 29.1062936 8.50427555 27.6768885 7.42651642 26.2291016 8.50427555 26.7604237 6.75489491 25.356403 5.68856389 27.125434 5.68856389 27.6768885 3.92687605"></polyline>
                                <polyline id="Fill-102" fill="#FFFFFF" points="7.39299157 12.6368577 7.94794736 14.3783265 9.7353602 14.3783265 8.30945642 15.4683929 8.86441222 17.2142572 7.39299157 16.125949 5.98634494 17.2142572 6.54130073 15.4683929 5.09263852 14.3783265 6.86079421 14.3783265 7.39299157 12.6368577"></polyline>
                                <polyline id="Fill-103" fill="#FFFFFF" points="17.5581361 12.6368577 18.0929595 14.3783265 19.8584892 14.3783265 18.4290841 15.4683929 18.9840399 17.2142572 17.5581361 16.125949 16.1085986 17.2142572 16.6416713 15.4683929 15.2157675 14.3783265 17.0031803 14.3783265 17.5581361 12.6368577"></polyline>
                                <polyline id="Fill-104" fill="#FFFFFF" points="27.6768885 12.6368577 28.2344703 14.3783265 30 14.3783265 28.5513378 15.4683929 29.1062936 17.2142572 27.6768885 16.125949 26.2291016 17.2142572 26.7604237 15.4683929 25.356403 14.3783265 27.125434 14.3783265 27.6768885 12.6368577"></polyline>
                            </g>
                        </g>
                    </g>
                </g>
            </g>
        </g>
    </g>
</svg>