<?xml version="1.0" encoding="UTF-8"?>
<svg version="1.1" xmlns="http://www.w3.org/2000/svg" width="70" height="70">
<path d="M0 0 C11.88 0 23.76 0 36 0 C36 3.96 36 7.92 36 12 C43.26 12 50.52 12 58 12 C58 21.24 58 30.48 58 40 C46.12 40 34.24 40 22 40 C22 36.04 22 32.08 22 28 C14.74 28 7.48 28 0 28 C0 18.76 0 9.52 0 0 Z " fill="#CC8687" transform="translate(6,16)"/>
<path d="M0 0 C11.88 0 23.76 0 36 0 C36 1.98 36 3.96 36 6 C30.72 6 25.44 6 20 6 C20 9.3 20 12.6 20 16 C20.66 16 21.32 16 22 16 C22 16.66 22 17.32 22 18 C14.74 18 7.48 18 0 18 C0 12.06 0 6.12 0 0 Z " fill="#6295CD" transform="translate(6,16)"/>
<path d="M0 0 C5.28 0 10.56 0 16 0 C16 8.91 16 17.82 16 27 C10.72 27 5.44 27 0 27 C0 18.09 0 9.18 0 0 Z " fill="#FCF9F9" transform="translate(38,29)"/>
<path d="M0 0 C3.3 0 6.6 0 10 0 C10 9.24 10 18.48 10 28 C6.7 28 3.4 28 0 28 C0 18.76 0 9.52 0 0 Z " fill="#F25C5D" transform="translate(54,28)"/>
<path d="M0 0 C2.97 0 5.94 0 9 0 C9 8.58 9 17.16 9 26 C6.03 26 3.06 26 0 26 C0 17.42 0 8.84 0 0 Z " fill="#FB6061" transform="translate(29,29)"/>
<path d="M0 0 C2.31 0 4.62 0 7 0 C7 0.99 7 1.98 7 3 C7.66 3 8.32 3 9 3 C9 3.66 9 4.32 9 5 C9.66 5 10.32 5 11 5 C11 5.66 11 6.32 11 7 C11.66 7 12.32 7 13 7 C13 7.66 13 8.32 13 9 C13.66 9 14.32 9 15 9 C15 9.66 15 10.32 15 11 C14.34 11 13.68 11 13 11 C13 11.66 13 12.32 13 13 C12.34 13 11.68 13 11 13 C11 12.34 11 11.68 11 11 C10.34 11 9.68 11 9 11 C9 11.66 9 12.32 9 13 C8.34 13 7.68 13 7 13 C7 12.34 7 11.68 7 11 C6.34 11 5.68 11 5 11 C5 11.66 5 12.32 5 13 C4.34 13 3.68 13 3 13 C3 12.34 3 11.68 3 11 C2.01 11 1.02 11 0 11 C0 7.37 0 3.74 0 0 Z " fill="#7EB3EE" transform="translate(7,17)"/>
<path d="M0 0 C7.26 0 14.52 0 22 0 C22 1.32 22 2.64 22 4 C14.74 4 7.48 4 0 4 C0 2.68 0 1.36 0 0 Z " fill="#A02F2F" transform="translate(6,40)"/>
<path d="M0 0 C7.26 0 14.52 0 22 0 C22 1.32 22 2.64 22 4 C14.74 4 7.48 4 0 4 C0 2.68 0 1.36 0 0 Z " fill="#CF3D3D" transform="translate(6,34)"/>
<path d="M0 0 C0.66 0 1.32 0 2 0 C2.66 1.32 3.32 2.64 4 4 C4.99 4 5.98 4 7 4 C6.42655063 6.86724686 6.1385485 7.8614515 4 10 C-1.20844327 10.55408971 -1.20844327 10.55408971 -3.875 8.6875 C-5 7 -5 7 -5 4 C-4.01 4 -3.02 4 -2 4 C-1.34 2.68 -0.68 1.36 0 0 Z " fill="#FE403A" transform="translate(45,36)"/>
<path d="M0 0 C5.28 0 10.56 0 16 0 C16 1.32 16 2.64 16 4 C10.72 4 5.44 4 0 4 C0 2.68 0 1.36 0 0 Z " fill="#B53535" transform="translate(26,22)"/>
<path d="M0 0 C5.28 0 10.56 0 16 0 C16 1.32 16 2.64 16 4 C10.72 4 5.44 4 0 4 C0 2.68 0 1.36 0 0 Z " fill="#B63636" transform="translate(26,16)"/>
<path d="M0 0 C1.32 0 2.64 0 4 0 C4 0.99 4 1.98 4 3 C4.66 3 5.32 3 6 3 C6 3.66 6 4.32 6 5 C6.66 5 7.32 5 8 5 C8 5.66 8 6.32 8 7 C8.66 7 9.32 7 10 7 C10 7.66 10 8.32 10 9 C10.66 9 11.32 9 12 9 C12 9.66 12 10.32 12 11 C11.34 11 10.68 11 10 11 C10 11.66 10 12.32 10 13 C9.34 13 8.68 13 8 13 C8 12.34 8 11.68 8 11 C7.34 11 6.68 11 6 11 C6 10.34 6 9.68 6 9 C5.34 9 4.68 9 4 9 C4 8.34 4 7.68 4 7 C3.34 7 2.68 7 2 7 C2 6.34 2 5.68 2 5 C1.34 5 0.68 5 0 5 C0 3.35 0 1.7 0 0 Z " fill="#A1C4EA" transform="translate(10,17)"/>
<path d="M0 0 C2.64 0 5.28 0 8 0 C8 0.99 8 1.98 8 3 C8.66 3 9.32 3 10 3 C10 3.66 10 4.32 10 5 C9.34 5 8.68 5 8 5 C8 5.66 8 6.32 8 7 C8.66 7 9.32 7 10 7 C10 7.66 10 8.32 10 9 C8.68 9 7.36 9 6 9 C6 8.34 6 7.68 6 7 C5.34 7 4.68 7 4 7 C4 6.34 4 5.68 4 5 C3.34 5 2.68 5 2 5 C2 4.34 2 3.68 2 3 C1.34 3 0.68 3 0 3 C0 2.01 0 1.02 0 0 Z " fill="#76A9E2" transform="translate(14,17)"/>
<path d="M0 0 C5.28 0 10.56 0 16 0 C16 0.66 16 1.32 16 2 C19.96 2 23.92 2 28 2 C28 2.33 28 2.66 28 3 C18.60394198 3.10731538 9.35912329 2.99263429 0 2 C0 1.34 0 0.68 0 0 Z " fill="#BDBDBD" transform="translate(26,26)"/>
<path d="M0 0 C4.62 0 9.24 0 14 0 C13.01 1.485 13.01 1.485 12 3 C9.1796875 3.29296875 9.1796875 3.29296875 5.875 3.1875 C4.23144531 3.14689453 4.23144531 3.14689453 2.5546875 3.10546875 C1.71164062 3.07066406 0.86859375 3.03585938 0 3 C0 2.01 0 1.02 0 0 Z " fill="#D13E3E" transform="translate(7,40)"/>
<path d="M0 0 C3.625 -0.1875 3.625 -0.1875 7 0 C7 0.99 7 1.98 7 3 C4.03 3 1.06 3 -2 3 C-1.34 2.01 -0.68 1.02 0 0 Z " fill="#B43535" transform="translate(21,40)"/>
</svg>
